<?xml version="1.0" encoding="iso-8859-1"?>
<!-- Generator: Adobe Illustrator 19.0.0, SVG Export Plug-In . SVG Version: 6.00 Build 0)  -->
<svg version="1.1" id="Layer_1" xmlns="http://www.w3.org/2000/svg" xmlns:xlink="http://www.w3.org/1999/xlink" x="0px" y="0px"
	 viewBox="0 0 512 512" style="enable-background:new 0 0 512 512;" xml:space="preserve">
<g>
	<rect x="125.947" y="343.852" style="fill:#0EDDF0;" width="48.1" height="91.925"/>
	<rect x="238.18" y="343.852" style="fill:#0EDDF0;" width="48.1" height="91.925"/>
	<rect x="350.414" y="343.852" style="fill:#0EDDF0;" width="48.1" height="91.925"/>
</g>
<rect x="77.85" y="295.752" style="fill:#EFEFEF;" width="368.768" height="48.1"/>
<polygon style="fill:#39B54A;" points="496.321,199.55 398.518,199.55 398.518,295.75 446.618,295.75 446.618,262.08 "/>
<rect x="77.85" y="220.93" style="fill:#FFDE17;" width="160.334" height="74.823"/>
<rect x="195.425" y="114.66" style="fill:#F7941E;" width="42.756" height="106.269"/>
<g>
	<rect x="26.999" y="114.66" style="fill:#A7A9AC;" width="56.138" height="42.756"/>
	<rect x="83.148" y="114.66" style="fill:#A7A9AC;" width="56.138" height="42.756"/>
	<rect x="139.286" y="114.66" style="fill:#A7A9AC;" width="56.138" height="42.756"/>
</g>
<g>
	<path style="fill:#231F20;" d="M10.688,446.641c7.594,0,10.906,1.732,15.488,4.128c5.59,2.922,12.548,6.561,25.394,6.561
		c12.847,0,19.804-3.639,25.395-6.561c4.582-2.396,7.894-4.128,15.488-4.128s10.906,1.732,15.489,4.128
		c5.59,2.922,12.549,6.561,25.396,6.561s19.804-3.637,25.396-6.561c4.583-2.396,7.894-4.128,15.489-4.128
		c7.594,0,10.906,1.732,15.489,4.128c5.59,2.923,12.548,6.561,25.395,6.561c12.846,0,19.802-3.639,25.393-6.562
		c4.582-2.396,7.893-4.127,15.486-4.127c7.594,0,10.906,1.732,15.489,4.128c5.59,2.923,12.548,6.561,25.395,6.561
		s19.804-3.637,25.396-6.561c4.583-2.396,7.894-4.128,15.489-4.128s10.908,1.732,15.491,4.128c5.59,2.923,12.549,6.561,25.396,6.561
		s19.804-3.637,25.395-6.561c4.583-2.396,7.895-4.128,15.49-4.128c7.597,0,10.909,1.732,15.493,4.128
		c5.591,2.923,12.55,6.561,25.398,6.561s19.807-3.637,25.398-6.561c4.584-2.396,7.896-4.128,15.494-4.128
		c5.904,0,10.689-4.785,10.689-10.689s-4.785-10.689-10.689-10.689c-12.848,0-19.807,3.637-25.398,6.561
		c-4.581,2.394-7.893,4.126-15.481,4.128h-0.027c-7.588-0.002-10.9-1.733-15.481-4.128c-5.59-2.923-12.549-6.561-25.397-6.561
		c-3.956,0-7.35,0.346-10.32,0.91v-71.635h37.411c5.904,0,10.689-4.785,10.689-10.689v-78.04l47.382-59.61
		c2.554-3.212,3.042-7.602,1.259-11.297c-1.783-3.695-5.524-6.044-9.626-6.044h-97.804c-5.904,0-10.689,4.785-10.689,10.689v85.511
		h-22.391l-11.29-246.334c-0.262-5.707-4.965-10.199-10.677-10.199h-12.827V13.384c0-5.903-4.785-10.689-10.689-10.689
		c-5.904,0-10.689,4.785-10.689,10.689v15.143h-12.827c-5.713,0-10.416,4.493-10.677,10.199l-11.291,246.335h-25.598v-170.4
		c0-5.904-4.785-10.689-10.689-10.689H27.003c-5.903,0-10.689,4.785-10.689,10.689v42.756c0,5.903,4.785,10.689,10.689,10.689
		H184.74v42.133H77.851c-5.904,0-10.689,4.785-10.689,10.689V343.85c0,5.904,4.785,10.689,10.689,10.689h37.411v75.959
		c-5.194-2.591-11.859-5.233-22.809-5.233c-12.847,0-19.803,3.639-25.394,6.561c-4.579,2.395-7.89,4.126-15.475,4.128h-0.027
		c-6.67-0.002-10.035-1.341-13.864-3.292V251.747c0-5.903-4.785-10.689-10.689-10.689s-10.689,4.785-10.689,10.689v173.779
		c-1.747-0.164-3.606-0.262-5.627-0.262C4.785,425.264,0,430.049,0,435.952S4.784,446.641,10.688,446.641z M227.495,354.539v78.852
		c-3.278,1.547-6.578,2.56-12.376,2.561h-0.027c-7.585-0.002-10.895-1.733-15.475-4.128c-3.832-2.003-8.306-4.342-14.877-5.615
		v-71.671h42.755V354.539z M339.729,354.539V425.3c-0.646-0.019-1.298-0.035-1.974-0.035c-12.847,0-19.805,3.637-25.396,6.561
		c-4.563,2.387-7.868,4.112-15.394,4.127c0.001-0.06,0.009-0.118,0.009-0.177v-81.236L339.729,354.539L339.729,354.539z
		 M275.595,429.006c-4.734-2.023-10.781-3.742-19.61-3.742c-2.604,0-4.954,0.155-7.112,0.418v-71.143h26.722V429.006z
		 M387.829,434.684c-2.42,0.793-5.212,1.268-9.174,1.27h-0.027c-7.586-0.002-10.897-1.733-15.478-4.128
		c-0.66-0.344-1.339-0.699-2.044-1.057v-76.229h26.722V434.684z M409.207,210.239h64.964l-35.92,45.19
		c-1.503,1.892-2.322,4.236-2.322,6.652v22.981h-26.722V210.239z M300.075,193.351l35.945,35.944l-39.397,39.398L300.075,193.351z
		 M304.829,89.618l26.021,26.021l-28.521,28.52L304.829,89.618z M340.292,203.336l-33.453-33.453l30.521-30.52L340.292,203.336z
		 M342.568,252.979l1.471,32.082h-33.551L342.568,252.979z M333.26,49.904l1.821,39.733L306.154,60.71l0.495-10.805H333.26z
		 M37.692,125.35h34.764v21.378H37.692V125.35z M93.834,125.35h34.764v21.378H93.834V125.35z M149.975,146.728V125.35h34.764v21.378
		H149.975z M206.117,125.35h21.378v84.888h-21.378V125.35z M88.539,231.616h138.956v53.445H88.539
		C88.539,285.061,88.539,231.616,88.539,231.616z M88.539,306.439h347.39v26.722H88.539
		C88.539,333.161,88.539,306.439,88.539,306.439z M163.361,354.539v71.744c-6.381,1.288-10.772,3.574-14.536,5.542
		c-3.857,2.017-6.823,3.558-12.19,3.998c0-0.016,0.002-0.032,0.002-0.048v-81.236L163.361,354.539L163.361,354.539z"/>
	<path style="fill:#231F20;" d="M501.31,477.238c-12.848,0-19.807,3.637-25.398,6.561c-4.585,2.396-7.896,4.128-15.494,4.128
		c-7.598,0-10.91-1.732-15.494-4.128c-5.59-2.923-12.549-6.561-25.397-6.561c-12.848,0-19.806,3.637-25.396,6.561
		c-4.583,2.396-7.895,4.128-15.49,4.128s-10.908-1.732-15.491-4.128c-5.59-2.923-12.549-6.561-25.396-6.561
		c-12.847,0-19.804,3.637-25.396,6.561c-4.583,2.396-7.894,4.128-15.489,4.128c-7.595,0-10.906-1.732-15.489-4.128
		c-5.59-2.923-12.548-6.561-25.395-6.561c-12.846,0-19.803,3.639-25.394,6.562c-4.582,2.396-7.893,4.127-15.486,4.127
		c-7.594,0-10.906-1.732-15.489-4.128c-5.59-2.923-12.548-6.561-25.395-6.561c-12.847,0-19.804,3.637-25.396,6.561
		c-4.583,2.396-7.894,4.128-15.489,4.128c-7.596,0-10.907-1.732-15.489-4.128c-5.59-2.923-12.548-6.561-25.395-6.561
		s-19.803,3.639-25.394,6.561c-4.582,2.396-7.894,4.128-15.488,4.128c-7.593,0-10.905-1.732-15.487-4.127
		c-5.59-2.923-12.548-6.562-25.394-6.562C4.785,477.238,0,482.024,0,487.927s4.785,10.689,10.689,10.689
		c7.594,0,10.906,1.732,15.488,4.128c5.59,2.922,12.548,6.561,25.394,6.561c12.847,0,19.804-3.638,25.395-6.561
		c4.582-2.396,7.894-4.128,15.488-4.128s10.906,1.732,15.489,4.128c5.59,2.922,12.549,6.561,25.396,6.561
		c12.847,0,19.804-3.637,25.396-6.561c4.583-2.396,7.894-4.128,15.489-4.128c7.594,0,10.906,1.732,15.489,4.128
		c5.59,2.923,12.548,6.561,25.395,6.561c12.846,0,19.802-3.638,25.393-6.562c4.582-2.396,7.893-4.127,15.486-4.127
		c7.594,0,10.906,1.732,15.489,4.128c5.59,2.923,12.548,6.561,25.395,6.561c12.847,0,19.804-3.637,25.396-6.561
		c4.583-2.396,7.894-4.128,15.489-4.128s10.908,1.732,15.491,4.128c5.59,2.923,12.549,6.561,25.396,6.561s19.804-3.637,25.395-6.561
		c4.583-2.396,7.895-4.128,15.49-4.128c7.597,0,10.909,1.732,15.493,4.128c5.591,2.923,12.55,6.561,25.398,6.561
		s19.807-3.637,25.398-6.561c4.584-2.396,7.896-4.128,15.494-4.128c5.904,0,10.689-4.785,10.689-10.689
		S507.214,477.238,501.31,477.238z"/>
	<path style="fill:#231F20;" d="M27.003,216.473c5.903,0,10.689-4.785,10.689-10.689v-0.713c0-5.903-4.785-10.689-10.689-10.689
		s-10.689,4.785-10.689,10.689v0.713C16.315,211.688,21.1,216.473,27.003,216.473z"/>
</g>
<g>
</g>
<g>
</g>
<g>
</g>
<g>
</g>
<g>
</g>
<g>
</g>
<g>
</g>
<g>
</g>
<g>
</g>
<g>
</g>
<g>
</g>
<g>
</g>
<g>
</g>
<g>
</g>
<g>
</g>
</svg>
